<?xml version="1.0" encoding="utf-8" standalone="no"?>
<!DOCTYPE svg PUBLIC "-//W3C//DTD SVG 1.1//EN"
  "http://www.w3.org/Graphics/SVG/1.1/DTD/svg11.dtd">
<svg xmlns:xlink="http://www.w3.org/1999/xlink" width="576pt" height="432pt" viewBox="0 0 576 432" xmlns="http://www.w3.org/2000/svg" version="1.1">
 <metadata>
  <rdf:RDF xmlns:dc="http://purl.org/dc/elements/1.1/" xmlns:cc="http://creativecommons.org/ns#" xmlns:rdf="http://www.w3.org/1999/02/22-rdf-syntax-ns#">
   <cc:Work>
    <dc:type rdf:resource="http://purl.org/dc/dcmitype/StillImage"/>
    <dc:date>2025-06-08T10:53:23.960700</dc:date>
    <dc:format>image/svg+xml</dc:format>
    <dc:creator>
     <cc:Agent>
      <dc:title>Matplotlib v3.6.3, https://matplotlib.org/</dc:title>
     </cc:Agent>
    </dc:creator>
   </cc:Work>
  </rdf:RDF>
 </metadata>
 <defs>
  <style type="text/css">*{stroke-linejoin: round; stroke-linecap: butt}</style>
 </defs>
 <g id="figure_1">
  <g id="patch_1">
   <path d="M 0 432 
L 576 432 
L 576 0 
L 0 0 
z
" style="fill: #ffffff"/>
  </g>
  <g id="axes_1">
   <g id="patch_2">
    <path d="M 72 384.48 
L 518.4 384.48 
L 518.4 51.84 
L 72 51.84 
z
" style="fill: #ffffff"/>
   </g>
   <g id="PathCollection_1">
    <path d="M 182.78799 122.234434 
L 188.78799 116.234434 
M 182.78799 116.234434 
L 188.78799 122.234434 
" clip-path="url(#pd6685d4886)" style="fill: #d9d9d9; stroke: #d9d9d9; stroke-width: 1.5"/>
    <path d="M 297.47133 121.514183 
L 303.47133 115.514183 
M 297.47133 115.514183 
L 303.47133 121.514183 
" clip-path="url(#pd6685d4886)" style="fill: #d9d9d9; stroke: #d9d9d9; stroke-width: 1.5"/>
    <path d="M 317.095051 295.757892 
L 323.095051 289.757892 
M 317.095051 289.757892 
L 323.095051 295.757892 
" clip-path="url(#pd6685d4886)" style="fill: #8dd3c7; stroke: #8dd3c7; stroke-width: 1.5"/>
    <path d="M 189.007077 341.585424 
L 195.007077 335.585424 
M 189.007077 335.585424 
L 195.007077 341.585424 
" clip-path="url(#pd6685d4886)" style="fill: #8dd3c7; stroke: #8dd3c7; stroke-width: 1.5"/>
    <path d="M 348.205224 273.235747 
L 354.205224 267.235747 
M 348.205224 267.235747 
L 354.205224 273.235747 
" clip-path="url(#pd6685d4886)" style="fill: #8dd3c7; stroke: #8dd3c7; stroke-width: 1.5"/>
    <path d="M 325.317116 241.727673 
L 331.317116 235.727673 
M 325.317116 235.727673 
L 331.317116 241.727673 
" clip-path="url(#pd6685d4886)" style="fill: #8dd3c7; stroke: #8dd3c7; stroke-width: 1.5"/>
    <path d="M 155.005728 179.393555 
L 161.005728 173.393555 
M 155.005728 173.393555 
L 161.005728 179.393555 
" clip-path="url(#pd6685d4886)" style="fill: #d9d9d9; stroke: #d9d9d9; stroke-width: 1.5"/>
    <path d="M 323.566408 235.873979 
L 329.566408 229.873979 
M 323.566408 229.873979 
L 329.566408 235.873979 
" clip-path="url(#pd6685d4886)" style="fill: #8dd3c7; stroke: #8dd3c7; stroke-width: 1.5"/>
    <path d="M 281.427275 324.459901 
L 287.427275 318.459901 
M 281.427275 318.459901 
L 287.427275 324.459901 
" clip-path="url(#pd6685d4886)" style="fill: #8dd3c7; stroke: #8dd3c7; stroke-width: 1.5"/>
    <path d="M 326.983188 339.9029 
L 332.983188 333.9029 
M 326.983188 333.9029 
L 332.983188 339.9029 
" clip-path="url(#pd6685d4886)" style="fill: #8dd3c7; stroke: #8dd3c7; stroke-width: 1.5"/>
    <path d="M 370.333249 285.988223 
L 376.333249 279.988223 
M 370.333249 279.988223 
L 376.333249 285.988223 
" clip-path="url(#pd6685d4886)" style="fill: #8dd3c7; stroke: #8dd3c7; stroke-width: 1.5"/>
    <path d="M 287.247824 267.56146 
L 293.247824 261.56146 
M 287.247824 261.56146 
L 293.247824 267.56146 
" clip-path="url(#pd6685d4886)" style="fill: #8dd3c7; stroke: #8dd3c7; stroke-width: 1.5"/>
    <path d="M 201.160231 107.833216 
L 207.160231 101.833216 
M 201.160231 101.833216 
L 207.160231 107.833216 
" clip-path="url(#pd6685d4886)" style="fill: #d9d9d9; stroke: #d9d9d9; stroke-width: 1.5"/>
    <path d="M 197.068266 285.87688 
L 203.068266 279.87688 
M 197.068266 279.87688 
L 203.068266 285.87688 
" clip-path="url(#pd6685d4886)" style="fill: #8dd3c7; stroke: #8dd3c7; stroke-width: 1.5"/>
    <path d="M 175.4087 285.546095 
L 181.4087 279.546095 
M 175.4087 279.546095 
L 181.4087 285.546095 
" clip-path="url(#pd6685d4886)" style="fill: #d9d9d9; stroke: #d9d9d9; stroke-width: 1.5"/>
    <path d="M 379.801224 320.31677 
L 385.801224 314.31677 
M 379.801224 314.31677 
L 385.801224 320.31677 
" clip-path="url(#pd6685d4886)" style="fill: #8dd3c7; stroke: #8dd3c7; stroke-width: 1.5"/>
    <path d="M 234.337395 198.53526 
L 240.337395 192.53526 
M 234.337395 192.53526 
L 240.337395 198.53526 
" clip-path="url(#pd6685d4886)" style="fill: #d9d9d9; stroke: #d9d9d9; stroke-width: 1.5"/>
    <path d="M 352.385918 327.905309 
L 358.385918 321.905309 
M 352.385918 321.905309 
L 358.385918 327.905309 
" clip-path="url(#pd6685d4886)" style="fill: #8dd3c7; stroke: #8dd3c7; stroke-width: 1.5"/>
    <path d="M 335.923787 182.859332 
L 341.923787 176.859332 
M 335.923787 176.859332 
L 341.923787 182.859332 
" clip-path="url(#pd6685d4886)" style="fill: #ffed6f; stroke: #ffed6f; stroke-width: 1.5"/>
    <path d="M 114.337767 212.431582 
L 120.337767 206.431582 
M 114.337767 206.431582 
L 120.337767 212.431582 
" clip-path="url(#pd6685d4886)" style="fill: #d9d9d9; stroke: #d9d9d9; stroke-width: 1.5"/>
    <path d="M 185.439765 271.163624 
L 191.439765 265.163624 
M 185.439765 265.163624 
L 191.439765 271.163624 
" clip-path="url(#pd6685d4886)" style="fill: #d9d9d9; stroke: #d9d9d9; stroke-width: 1.5"/>
    <path d="M 203.251792 160.75178 
L 209.251792 154.75178 
M 203.251792 154.75178 
L 209.251792 160.75178 
" clip-path="url(#pd6685d4886)" style="fill: #d9d9d9; stroke: #d9d9d9; stroke-width: 1.5"/>
    <path d="M 385.48282 268.62623 
L 391.48282 262.62623 
M 385.48282 262.62623 
L 391.48282 268.62623 
" clip-path="url(#pd6685d4886)" style="fill: #8dd3c7; stroke: #8dd3c7; stroke-width: 1.5"/>
    <path d="M 495.109091 69.96 
L 501.109091 63.96 
M 495.109091 63.96 
L 501.109091 69.96 
" clip-path="url(#pd6685d4886)" style="fill: #ffed6f; stroke: #ffed6f; stroke-width: 1.5"/>
    <path d="M 233.69805 288.400284 
L 239.69805 282.400284 
M 233.69805 282.400284 
L 239.69805 288.400284 
" clip-path="url(#pd6685d4886)" style="fill: #8dd3c7; stroke: #8dd3c7; stroke-width: 1.5"/>
    <path d="M 463.3401 267.350383 
L 469.3401 261.350383 
M 463.3401 261.350383 
L 469.3401 267.350383 
" clip-path="url(#pd6685d4886)" style="fill: #8dd3c7; stroke: #8dd3c7; stroke-width: 1.5"/>
    <path d="M 205.075799 262.524286 
L 211.075799 256.524286 
M 205.075799 256.524286 
L 211.075799 262.524286 
" clip-path="url(#pd6685d4886)" style="fill: #d9d9d9; stroke: #d9d9d9; stroke-width: 1.5"/>
    <path d="M 137.463527 162.523574 
L 143.463527 156.523574 
M 137.463527 156.523574 
L 143.463527 162.523574 
" clip-path="url(#pd6685d4886)" style="fill: #d9d9d9; stroke: #d9d9d9; stroke-width: 1.5"/>
    <path d="M 253.532604 335.848266 
L 259.532604 329.848266 
M 253.532604 329.848266 
L 259.532604 335.848266 
" clip-path="url(#pd6685d4886)" style="fill: #8dd3c7; stroke: #8dd3c7; stroke-width: 1.5"/>
    <path d="M 256.614376 356.382196 
L 262.614376 350.382196 
M 256.614376 350.382196 
L 262.614376 356.382196 
" clip-path="url(#pd6685d4886)" style="fill: #8dd3c7; stroke: #8dd3c7; stroke-width: 1.5"/>
    <path d="M 185.509607 136.003835 
L 191.509607 130.003835 
M 185.509607 130.003835 
L 191.509607 136.003835 
" clip-path="url(#pd6685d4886)" style="fill: #d9d9d9; stroke: #d9d9d9; stroke-width: 1.5"/>
    <path d="M 206.951051 207.887986 
L 212.951051 201.887986 
M 206.951051 201.887986 
L 212.951051 207.887986 
" clip-path="url(#pd6685d4886)" style="fill: #d9d9d9; stroke: #d9d9d9; stroke-width: 1.5"/>
    <path d="M 247.220608 234.245347 
L 253.220608 228.245347 
M 247.220608 228.245347 
L 253.220608 234.245347 
" clip-path="url(#pd6685d4886)" style="fill: #d9d9d9; stroke: #d9d9d9; stroke-width: 1.5"/>
    <path d="M 355.253568 243.079791 
L 361.253568 237.079791 
M 355.253568 237.079791 
L 361.253568 243.079791 
" clip-path="url(#pd6685d4886)" style="fill: #8dd3c7; stroke: #8dd3c7; stroke-width: 1.5"/>
    <path d="M 214.964926 228.177828 
L 220.964926 222.177828 
M 214.964926 222.177828 
L 220.964926 228.177828 
" clip-path="url(#pd6685d4886)" style="fill: #8dd3c7; stroke: #8dd3c7; stroke-width: 1.5"/>
    <path d="M 168.603147 311.68557 
L 174.603147 305.68557 
M 168.603147 305.68557 
L 174.603147 311.68557 
" clip-path="url(#pd6685d4886)" style="fill: #8dd3c7; stroke: #8dd3c7; stroke-width: 1.5"/>
    <path d="M 359.901804 350.439113 
L 365.901804 344.439113 
M 359.901804 344.439113 
L 365.901804 350.439113 
" clip-path="url(#pd6685d4886)" style="fill: #8dd3c7; stroke: #8dd3c7; stroke-width: 1.5"/>
    <path d="M 204.004377 308.537966 
L 210.004377 302.537966 
M 204.004377 302.537966 
L 210.004377 308.537966 
" clip-path="url(#pd6685d4886)" style="fill: #8dd3c7; stroke: #8dd3c7; stroke-width: 1.5"/>
    <path d="M 421.339815 241.915544 
L 427.339815 235.915544 
M 421.339815 235.915544 
L 427.339815 241.915544 
" clip-path="url(#pd6685d4886)" style="fill: #8dd3c7; stroke: #8dd3c7; stroke-width: 1.5"/>
    <path d="M 216.447936 257.60961 
L 222.447936 251.60961 
M 216.447936 251.60961 
L 222.447936 257.60961 
" clip-path="url(#pd6685d4886)" style="fill: #d9d9d9; stroke: #d9d9d9; stroke-width: 1.5"/>
    <path d="M 479.00527 288.896297 
L 485.00527 282.896297 
M 479.00527 282.896297 
L 485.00527 288.896297 
" clip-path="url(#pd6685d4886)" style="fill: #8dd3c7; stroke: #8dd3c7; stroke-width: 1.5"/>
    <path d="M 183.860014 353.624423 
L 189.860014 347.624423 
M 183.860014 347.624423 
L 189.860014 353.624423 
" clip-path="url(#pd6685d4886)" style="fill: #8dd3c7; stroke: #8dd3c7; stroke-width: 1.5"/>
    <path d="M 323.726348 354.69524 
L 329.726348 348.69524 
M 323.726348 348.69524 
L 329.726348 354.69524 
" clip-path="url(#pd6685d4886)" style="fill: #8dd3c7; stroke: #8dd3c7; stroke-width: 1.5"/>
    <path d="M 329.904339 252.881496 
L 335.904339 246.881496 
M 329.904339 246.881496 
L 335.904339 252.881496 
" clip-path="url(#pd6685d4886)" style="fill: #d9d9d9; stroke: #d9d9d9; stroke-width: 1.5"/>
    <path d="M 276.92189 274.105146 
L 282.92189 268.105146 
M 276.92189 268.105146 
L 282.92189 274.105146 
" clip-path="url(#pd6685d4886)" style="fill: #8dd3c7; stroke: #8dd3c7; stroke-width: 1.5"/>
    <path d="M 313.253879 340.862965 
L 319.253879 334.862965 
M 313.253879 334.862965 
L 319.253879 340.862965 
" clip-path="url(#pd6685d4886)" style="fill: #8dd3c7; stroke: #8dd3c7; stroke-width: 1.5"/>
    <path d="M 284.438171 276.621199 
L 290.438171 270.621199 
M 284.438171 270.621199 
L 290.438171 276.621199 
" clip-path="url(#pd6685d4886)" style="fill: #d9d9d9; stroke: #d9d9d9; stroke-width: 1.5"/>
    <path d="M 304.99438 335.593557 
L 310.99438 329.593557 
M 304.99438 329.593557 
L 310.99438 335.593557 
" clip-path="url(#pd6685d4886)" style="fill: #8dd3c7; stroke: #8dd3c7; stroke-width: 1.5"/>
    <path d="M 392.564958 263.756278 
L 398.564958 257.756278 
M 392.564958 257.756278 
L 398.564958 263.756278 
" clip-path="url(#pd6685d4886)" style="fill: #8dd3c7; stroke: #8dd3c7; stroke-width: 1.5"/>
    <path d="M 264.619335 353.758501 
L 270.619335 347.758501 
M 264.619335 347.758501 
L 270.619335 353.758501 
" clip-path="url(#pd6685d4886)" style="fill: #8dd3c7; stroke: #8dd3c7; stroke-width: 1.5"/>
    <path d="M 277.151775 316.786169 
L 283.151775 310.786169 
M 277.151775 310.786169 
L 283.151775 316.786169 
" clip-path="url(#pd6685d4886)" style="fill: #8dd3c7; stroke: #8dd3c7; stroke-width: 1.5"/>
    <path d="M 212.096054 299.562007 
L 218.096054 293.562007 
M 212.096054 293.562007 
L 218.096054 299.562007 
" clip-path="url(#pd6685d4886)" style="fill: #8dd3c7; stroke: #8dd3c7; stroke-width: 1.5"/>
    <path d="M 265.019209 272.991325 
L 271.019209 266.991325 
M 265.019209 266.991325 
L 271.019209 272.991325 
" clip-path="url(#pd6685d4886)" style="fill: #d9d9d9; stroke: #d9d9d9; stroke-width: 1.5"/>
    <path d="M 123.668747 171.445458 
L 129.668747 165.445458 
M 123.668747 165.445458 
L 129.668747 171.445458 
" clip-path="url(#pd6685d4886)" style="fill: #d9d9d9; stroke: #d9d9d9; stroke-width: 1.5"/>
    <path d="M 354.18399 256.60699 
L 360.18399 250.60699 
M 354.18399 250.60699 
L 360.18399 256.60699 
" clip-path="url(#pd6685d4886)" style="fill: #80b1d3; stroke: #80b1d3; stroke-width: 1.5"/>
    <path d="M 203.588085 220.793857 
L 209.588085 214.793857 
M 203.588085 214.793857 
L 209.588085 220.793857 
" clip-path="url(#pd6685d4886)" style="fill: #8dd3c7; stroke: #8dd3c7; stroke-width: 1.5"/>
    <path d="M 215.769739 339.544202 
L 221.769739 333.544202 
M 215.769739 333.544202 
L 221.769739 339.544202 
" clip-path="url(#pd6685d4886)" style="fill: #8dd3c7; stroke: #8dd3c7; stroke-width: 1.5"/>
    <path d="M 363.1499 318.069803 
L 369.1499 312.069803 
M 363.1499 312.069803 
L 369.1499 318.069803 
" clip-path="url(#pd6685d4886)" style="fill: #8dd3c7; stroke: #8dd3c7; stroke-width: 1.5"/>
    <path d="M 297.852918 144.93692 
L 303.852918 138.93692 
M 297.852918 138.93692 
L 303.852918 144.93692 
" clip-path="url(#pd6685d4886)" style="fill: #d9d9d9; stroke: #d9d9d9; stroke-width: 1.5"/>
    <path d="M 296.965365 204.883874 
L 302.965365 198.883874 
M 296.965365 198.883874 
L 302.965365 204.883874 
" clip-path="url(#pd6685d4886)" style="fill: #8dd3c7; stroke: #8dd3c7; stroke-width: 1.5"/>
    <path d="M 188.966466 306.962125 
L 194.966466 300.962125 
M 188.966466 300.962125 
L 194.966466 306.962125 
" clip-path="url(#pd6685d4886)" style="fill: #8dd3c7; stroke: #8dd3c7; stroke-width: 1.5"/>
    <path d="M 316.006851 221.698026 
L 322.006851 215.698026 
M 316.006851 215.698026 
L 322.006851 221.698026 
" clip-path="url(#pd6685d4886)" style="fill: #d9d9d9; stroke: #d9d9d9; stroke-width: 1.5"/>
    <path d="M 381.241937 356.103861 
L 387.241937 350.103861 
M 381.241937 350.103861 
L 387.241937 356.103861 
" clip-path="url(#pd6685d4886)" style="fill: #8dd3c7; stroke: #8dd3c7; stroke-width: 1.5"/>
    <path d="M 311.780806 169.478176 
L 317.780806 163.478176 
M 311.780806 163.478176 
L 317.780806 169.478176 
" clip-path="url(#pd6685d4886)" style="fill: #d9d9d9; stroke: #d9d9d9; stroke-width: 1.5"/>
    <path d="M 116.54853 219.708668 
L 122.54853 213.708668 
M 116.54853 213.708668 
L 122.54853 219.708668 
" clip-path="url(#pd6685d4886)" style="fill: #d9d9d9; stroke: #d9d9d9; stroke-width: 1.5"/>
    <path d="M 475.735064 110.979723 
L 481.735064 104.979723 
M 475.735064 104.979723 
L 481.735064 110.979723 
" clip-path="url(#pd6685d4886)" style="fill: #ffed6f; stroke: #ffed6f; stroke-width: 1.5"/>
    <path d="M 304.918992 227.010277 
L 310.918992 221.010277 
M 304.918992 221.010277 
L 310.918992 227.010277 
" clip-path="url(#pd6685d4886)" style="fill: #8dd3c7; stroke: #8dd3c7; stroke-width: 1.5"/>
    <path d="M 343.103178 207.669536 
L 349.103178 201.669536 
M 343.103178 201.669536 
L 349.103178 207.669536 
" clip-path="url(#pd6685d4886)" style="fill: #8dd3c7; stroke: #8dd3c7; stroke-width: 1.5"/>
    <path d="M 491.850669 206.686713 
L 497.850669 200.686713 
M 491.850669 200.686713 
L 497.850669 206.686713 
" clip-path="url(#pd6685d4886)" style="fill: #8dd3c7; stroke: #8dd3c7; stroke-width: 1.5"/>
    <path d="M 312.875004 232.803287 
L 318.875004 226.803287 
M 312.875004 226.803287 
L 318.875004 232.803287 
" clip-path="url(#pd6685d4886)" style="fill: #8dd3c7; stroke: #8dd3c7; stroke-width: 1.5"/>
    <path d="M 278.060241 213.469041 
L 284.060241 207.469041 
M 278.060241 207.469041 
L 284.060241 213.469041 
" clip-path="url(#pd6685d4886)" style="fill: #8dd3c7; stroke: #8dd3c7; stroke-width: 1.5"/>
    <path d="M 431.356575 229.02961 
L 437.356575 223.02961 
M 431.356575 223.02961 
L 437.356575 229.02961 
" clip-path="url(#pd6685d4886)" style="fill: #8dd3c7; stroke: #8dd3c7; stroke-width: 1.5"/>
    <path d="M 204.680822 317.197631 
L 210.680822 311.197631 
M 204.680822 311.197631 
L 210.680822 317.197631 
" clip-path="url(#pd6685d4886)" style="fill: #8dd3c7; stroke: #8dd3c7; stroke-width: 1.5"/>
    <path d="M 218.500275 298.750117 
L 224.500275 292.750117 
M 218.500275 292.750117 
L 224.500275 298.750117 
" clip-path="url(#pd6685d4886)" style="fill: #d9d9d9; stroke: #d9d9d9; stroke-width: 1.5"/>
    <path d="M 277.674082 290.629991 
L 283.674082 284.629991 
M 277.674082 284.629991 
L 283.674082 290.629991 
" clip-path="url(#pd6685d4886)" style="fill: #8dd3c7; stroke: #8dd3c7; stroke-width: 1.5"/>
    <path d="M 301.349708 221.231952 
L 307.349708 215.231952 
M 301.349708 215.231952 
L 307.349708 221.231952 
" clip-path="url(#pd6685d4886)" style="fill: #d9d9d9; stroke: #d9d9d9; stroke-width: 1.5"/>
    <path d="M 415.200057 293.446327 
L 421.200057 287.446327 
M 415.200057 287.446327 
L 421.200057 293.446327 
" clip-path="url(#pd6685d4886)" style="fill: #8dd3c7; stroke: #8dd3c7; stroke-width: 1.5"/>
    <path d="M 294.395848 372.36 
L 300.395848 366.36 
M 294.395848 366.36 
L 300.395848 372.36 
" clip-path="url(#pd6685d4886)" style="fill: #8dd3c7; stroke: #8dd3c7; stroke-width: 1.5"/>
    <path d="M 385.004924 209.66889 
L 391.004924 203.66889 
M 385.004924 203.66889 
L 391.004924 209.66889 
" clip-path="url(#pd6685d4886)" style="fill: #8dd3c7; stroke: #8dd3c7; stroke-width: 1.5"/>
    <path d="M 225.824527 126.165647 
L 231.824527 120.165647 
M 225.824527 120.165647 
L 231.824527 126.165647 
" clip-path="url(#pd6685d4886)" style="fill: #d9d9d9; stroke: #d9d9d9; stroke-width: 1.5"/>
    <path d="M 337.454292 144.535859 
L 343.454292 138.535859 
M 337.454292 138.535859 
L 343.454292 144.535859 
" clip-path="url(#pd6685d4886)" style="fill: #d9d9d9; stroke: #d9d9d9; stroke-width: 1.5"/>
    <path d="M 299.877016 192.918127 
L 305.877016 186.918127 
M 299.877016 186.918127 
L 305.877016 192.918127 
" clip-path="url(#pd6685d4886)" style="fill: #d9d9d9; stroke: #d9d9d9; stroke-width: 1.5"/>
    <path d="M 115.876052 260.963866 
L 121.876052 254.963866 
M 115.876052 254.963866 
L 121.876052 260.963866 
" clip-path="url(#pd6685d4886)" style="fill: #d9d9d9; stroke: #d9d9d9; stroke-width: 1.5"/>
    <path d="M 334.001882 262.481478 
L 340.001882 256.481478 
M 334.001882 256.481478 
L 340.001882 262.481478 
" clip-path="url(#pd6685d4886)" style="fill: #8dd3c7; stroke: #8dd3c7; stroke-width: 1.5"/>
    <path d="M 161.522278 106.080751 
L 167.522278 100.080751 
M 161.522278 100.080751 
L 167.522278 106.080751 
" clip-path="url(#pd6685d4886)" style="fill: #d9d9d9; stroke: #d9d9d9; stroke-width: 1.5"/>
    <path d="M 416.510747 172.576059 
L 422.510747 166.576059 
M 416.510747 166.576059 
L 422.510747 172.576059 
" clip-path="url(#pd6685d4886)" style="fill: #8dd3c7; stroke: #8dd3c7; stroke-width: 1.5"/>
    <path d="M 383.080386 286.084651 
L 389.080386 280.084651 
M 383.080386 280.084651 
L 389.080386 286.084651 
" clip-path="url(#pd6685d4886)" style="fill: #8dd3c7; stroke: #8dd3c7; stroke-width: 1.5"/>
    <path d="M 235.395145 141.833272 
L 241.395145 135.833272 
M 235.395145 135.833272 
L 241.395145 141.833272 
" clip-path="url(#pd6685d4886)" style="fill: #d9d9d9; stroke: #d9d9d9; stroke-width: 1.5"/>
    <path d="M 89.290909 265.461483 
L 95.290909 259.461483 
M 89.290909 259.461483 
L 95.290909 265.461483 
" clip-path="url(#pd6685d4886)" style="fill: #d9d9d9; stroke: #d9d9d9; stroke-width: 1.5"/>
    <path d="M 126.983337 251.771107 
L 132.983337 245.771107 
M 126.983337 245.771107 
L 132.983337 251.771107 
" clip-path="url(#pd6685d4886)" style="fill: #d9d9d9; stroke: #d9d9d9; stroke-width: 1.5"/>
    <path d="M 187.850598 227.799966 
L 193.850598 221.799966 
M 187.850598 221.799966 
L 193.850598 227.799966 
" clip-path="url(#pd6685d4886)" style="fill: #d9d9d9; stroke: #d9d9d9; stroke-width: 1.5"/>
    <path d="M 477.716597 81.930468 
L 483.716597 75.930468 
M 477.716597 75.930468 
L 483.716597 81.930468 
" clip-path="url(#pd6685d4886)" style="fill: #ffed6f; stroke: #ffed6f; stroke-width: 1.5"/>
    <path d="M 116.292238 185.788342 
L 122.292238 179.788342 
M 116.292238 179.788342 
L 122.292238 185.788342 
" clip-path="url(#pd6685d4886)" style="fill: #d9d9d9; stroke: #d9d9d9; stroke-width: 1.5"/>
    <path d="M 278.387227 277.343097 
L 284.387227 271.343097 
M 278.387227 271.343097 
L 284.387227 277.343097 
" clip-path="url(#pd6685d4886)" style="fill: #d9d9d9; stroke: #d9d9d9; stroke-width: 1.5"/>
    <path d="M 194.030329 270.210203 
L 200.030329 264.210203 
M 194.030329 264.210203 
L 200.030329 270.210203 
" clip-path="url(#pd6685d4886)" style="fill: #d9d9d9; stroke: #d9d9d9; stroke-width: 1.5"/>
    <path d="M 328.762138 338.915893 
L 334.762138 332.915893 
M 328.762138 332.915893 
L 334.762138 338.915893 
" clip-path="url(#pd6685d4886)" style="fill: #8dd3c7; stroke: #8dd3c7; stroke-width: 1.5"/>
    <path d="M 328.758311 123.438828 
L 334.758311 117.438828 
M 328.758311 117.438828 
L 334.758311 123.438828 
" clip-path="url(#pd6685d4886)" style="fill: #d9d9d9; stroke: #d9d9d9; stroke-width: 1.5"/>
    <path d="M 236.377201 234.119334 
L 242.377201 228.119334 
M 236.377201 228.119334 
L 242.377201 234.119334 
" clip-path="url(#pd6685d4886)" style="fill: #d9d9d9; stroke: #d9d9d9; stroke-width: 1.5"/>
    <path d="M 440.605476 234.373831 
L 446.605476 228.373831 
M 440.605476 228.373831 
L 446.605476 234.373831 
" clip-path="url(#pd6685d4886)" style="fill: #8dd3c7; stroke: #8dd3c7; stroke-width: 1.5"/>
    <path d="M 135.741853 165.831755 
L 141.741853 159.831755 
M 135.741853 159.831755 
L 141.741853 165.831755 
" clip-path="url(#pd6685d4886)" style="fill: #d9d9d9; stroke: #d9d9d9; stroke-width: 1.5"/>
   </g>
   <g id="matplotlib.axis_1">
    <g id="xtick_1">
     <g id="line2d_1">
      <path d="M 108.081217 384.48 
L 108.081217 51.84 
" clip-path="url(#pd6685d4886)" style="fill: none; stroke-dasharray: 2.22,0.96; stroke-dashoffset: 0; stroke: #b0b0b0; stroke-opacity: 0.7; stroke-width: 0.6"/>
     </g>
     <g id="line2d_2">
      <defs>
       <path id="madd8a45554" d="M 0 0 
L 0 -3.5 
" style="stroke: #1a1a1a; stroke-width: 0.8"/>
      </defs>
      <g>
       <use xlink:href="#madd8a45554" x="108.081217" y="384.48" style="fill: #1a1a1a; stroke: #1a1a1a; stroke-width: 0.8"/>
      </g>
     </g>
     <g id="text_1">
      <!-- −2 -->
      <g style="fill: #1a1a1a" transform="translate(99.235904 397.098125) scale(0.12 -0.12)">
       <defs>
        <path id="DejaVuSans-2212" d="M 678 2272 
L 4684 2272 
L 4684 1741 
L 678 1741 
L 678 2272 
z
" transform="scale(0.015625)"/>
        <path id="DejaVuSans-32" d="M 1228 531 
L 3431 531 
L 3431 0 
L 469 0 
L 469 531 
Q 828 903 1448 1529 
Q 2069 2156 2228 2338 
Q 2531 2678 2651 2914 
Q 2772 3150 2772 3378 
Q 2772 3750 2511 3984 
Q 2250 4219 1831 4219 
Q 1534 4219 1204 4116 
Q 875 4013 500 3803 
L 500 4441 
Q 881 4594 1212 4672 
Q 1544 4750 1819 4750 
Q 2544 4750 2975 4387 
Q 3406 4025 3406 3419 
Q 3406 3131 3298 2873 
Q 3191 2616 2906 2266 
Q 2828 2175 2409 1742 
Q 1991 1309 1228 531 
z
" transform="scale(0.015625)"/>
       </defs>
       <use xlink:href="#DejaVuSans-2212"/>
       <use xlink:href="#DejaVuSans-32" x="83.789062"/>
      </g>
     </g>
    </g>
    <g id="xtick_2">
     <g id="line2d_3">
      <path d="M 195.822601 384.48 
L 195.822601 51.84 
" clip-path="url(#pd6685d4886)" style="fill: none; stroke-dasharray: 2.22,0.96; stroke-dashoffset: 0; stroke: #b0b0b0; stroke-opacity: 0.7; stroke-width: 0.6"/>
     </g>
     <g id="line2d_4">
      <g>
       <use xlink:href="#madd8a45554" x="195.822601" y="384.48" style="fill: #1a1a1a; stroke: #1a1a1a; stroke-width: 0.8"/>
      </g>
     </g>
     <g id="text_2">
      <!-- −1 -->
      <g style="fill: #1a1a1a" transform="translate(186.977288 397.098125) scale(0.12 -0.12)">
       <defs>
        <path id="DejaVuSans-31" d="M 794 531 
L 1825 531 
L 1825 4091 
L 703 3866 
L 703 4441 
L 1819 4666 
L 2450 4666 
L 2450 531 
L 3481 531 
L 3481 0 
L 794 0 
L 794 531 
z
" transform="scale(0.015625)"/>
       </defs>
       <use xlink:href="#DejaVuSans-2212"/>
       <use xlink:href="#DejaVuSans-31" x="83.789062"/>
      </g>
     </g>
    </g>
    <g id="xtick_3">
     <g id="line2d_5">
      <path d="M 283.563984 384.48 
L 283.563984 51.84 
" clip-path="url(#pd6685d4886)" style="fill: none; stroke-dasharray: 2.22,0.96; stroke-dashoffset: 0; stroke: #b0b0b0; stroke-opacity: 0.7; stroke-width: 0.6"/>
     </g>
     <g id="line2d_6">
      <g>
       <use xlink:href="#madd8a45554" x="283.563984" y="384.48" style="fill: #1a1a1a; stroke: #1a1a1a; stroke-width: 0.8"/>
      </g>
     </g>
     <g id="text_3">
      <!-- 0 -->
      <g style="fill: #1a1a1a" transform="translate(279.746484 397.098125) scale(0.12 -0.12)">
       <defs>
        <path id="DejaVuSans-30" d="M 2034 4250 
Q 1547 4250 1301 3770 
Q 1056 3291 1056 2328 
Q 1056 1369 1301 889 
Q 1547 409 2034 409 
Q 2525 409 2770 889 
Q 3016 1369 3016 2328 
Q 3016 3291 2770 3770 
Q 2525 4250 2034 4250 
z
M 2034 4750 
Q 2819 4750 3233 4129 
Q 3647 3509 3647 2328 
Q 3647 1150 3233 529 
Q 2819 -91 2034 -91 
Q 1250 -91 836 529 
Q 422 1150 422 2328 
Q 422 3509 836 4129 
Q 1250 4750 2034 4750 
z
" transform="scale(0.015625)"/>
       </defs>
       <use xlink:href="#DejaVuSans-30"/>
      </g>
     </g>
    </g>
    <g id="xtick_4">
     <g id="line2d_7">
      <path d="M 371.305368 384.48 
L 371.305368 51.84 
" clip-path="url(#pd6685d4886)" style="fill: none; stroke-dasharray: 2.22,0.96; stroke-dashoffset: 0; stroke: #b0b0b0; stroke-opacity: 0.7; stroke-width: 0.6"/>
     </g>
     <g id="line2d_8">
      <g>
       <use xlink:href="#madd8a45554" x="371.305368" y="384.48" style="fill: #1a1a1a; stroke: #1a1a1a; stroke-width: 0.8"/>
      </g>
     </g>
     <g id="text_4">
      <!-- 1 -->
      <g style="fill: #1a1a1a" transform="translate(367.487868 397.098125) scale(0.12 -0.12)">
       <use xlink:href="#DejaVuSans-31"/>
      </g>
     </g>
    </g>
    <g id="xtick_5">
     <g id="line2d_9">
      <path d="M 459.046752 384.48 
L 459.046752 51.84 
" clip-path="url(#pd6685d4886)" style="fill: none; stroke-dasharray: 2.22,0.96; stroke-dashoffset: 0; stroke: #b0b0b0; stroke-opacity: 0.7; stroke-width: 0.6"/>
     </g>
     <g id="line2d_10">
      <g>
       <use xlink:href="#madd8a45554" x="459.046752" y="384.48" style="fill: #1a1a1a; stroke: #1a1a1a; stroke-width: 0.8"/>
      </g>
     </g>
     <g id="text_5">
      <!-- 2 -->
      <g style="fill: #1a1a1a" transform="translate(455.229252 397.098125) scale(0.12 -0.12)">
       <use xlink:href="#DejaVuSans-32"/>
      </g>
     </g>
    </g>
    <g id="text_6">
     <!-- PCA1 -->
     <g style="fill: #1a1a1a" transform="translate(279.470625 412.711875) scale(0.12 -0.12)">
      <defs>
       <path id="DejaVuSans-50" d="M 1259 4147 
L 1259 2394 
L 2053 2394 
Q 2494 2394 2734 2622 
Q 2975 2850 2975 3272 
Q 2975 3691 2734 3919 
Q 2494 4147 2053 4147 
L 1259 4147 
z
M 628 4666 
L 2053 4666 
Q 2838 4666 3239 4311 
Q 3641 3956 3641 3272 
Q 3641 2581 3239 2228 
Q 2838 1875 2053 1875 
L 1259 1875 
L 1259 0 
L 628 0 
L 628 4666 
z
" transform="scale(0.015625)"/>
       <path id="DejaVuSans-43" d="M 4122 4306 
L 4122 3641 
Q 3803 3938 3442 4084 
Q 3081 4231 2675 4231 
Q 1875 4231 1450 3742 
Q 1025 3253 1025 2328 
Q 1025 1406 1450 917 
Q 1875 428 2675 428 
Q 3081 428 3442 575 
Q 3803 722 4122 1019 
L 4122 359 
Q 3791 134 3420 21 
Q 3050 -91 2638 -91 
Q 1578 -91 968 557 
Q 359 1206 359 2328 
Q 359 3453 968 4101 
Q 1578 4750 2638 4750 
Q 3056 4750 3426 4639 
Q 3797 4528 4122 4306 
z
" transform="scale(0.015625)"/>
       <path id="DejaVuSans-41" d="M 2188 4044 
L 1331 1722 
L 3047 1722 
L 2188 4044 
z
M 1831 4666 
L 2547 4666 
L 4325 0 
L 3669 0 
L 3244 1197 
L 1141 1197 
L 716 0 
L 50 0 
L 1831 4666 
z
" transform="scale(0.015625)"/>
      </defs>
      <use xlink:href="#DejaVuSans-50"/>
      <use xlink:href="#DejaVuSans-43" x="60.302734"/>
      <use xlink:href="#DejaVuSans-41" x="130.126953"/>
      <use xlink:href="#DejaVuSans-31" x="198.535156"/>
     </g>
    </g>
   </g>
   <g id="matplotlib.axis_2">
    <g id="ytick_1">
     <g id="line2d_11">
      <path d="M 72 379.467607 
L 518.4 379.467607 
" clip-path="url(#pd6685d4886)" style="fill: none; stroke-dasharray: 2.22,0.96; stroke-dashoffset: 0; stroke: #b0b0b0; stroke-opacity: 0.7; stroke-width: 0.6"/>
     </g>
     <g id="line2d_12">
      <defs>
       <path id="mab772493af" d="M 0 0 
L 3.5 0 
" style="stroke: #1a1a1a; stroke-width: 0.8"/>
      </defs>
      <g>
       <use xlink:href="#mab772493af" x="72" y="379.467607" style="fill: #1a1a1a; stroke: #1a1a1a; stroke-width: 0.8"/>
      </g>
     </g>
     <g id="text_7">
      <!-- −2 -->
      <g style="fill: #1a1a1a" transform="translate(50.809375 384.026669) scale(0.12 -0.12)">
       <use xlink:href="#DejaVuSans-2212"/>
       <use xlink:href="#DejaVuSans-32" x="83.789062"/>
      </g>
     </g>
    </g>
    <g id="ytick_2">
     <g id="line2d_13">
      <path d="M 72 311.281687 
L 518.4 311.281687 
" clip-path="url(#pd6685d4886)" style="fill: none; stroke-dasharray: 2.22,0.96; stroke-dashoffset: 0; stroke: #b0b0b0; stroke-opacity: 0.7; stroke-width: 0.6"/>
     </g>
     <g id="line2d_14">
      <g>
       <use xlink:href="#mab772493af" x="72" y="311.281687" style="fill: #1a1a1a; stroke: #1a1a1a; stroke-width: 0.8"/>
      </g>
     </g>
     <g id="text_8">
      <!-- −1 -->
      <g style="fill: #1a1a1a" transform="translate(50.809375 315.840749) scale(0.12 -0.12)">
       <use xlink:href="#DejaVuSans-2212"/>
       <use xlink:href="#DejaVuSans-31" x="83.789062"/>
      </g>
     </g>
    </g>
    <g id="ytick_3">
     <g id="line2d_15">
      <path d="M 72 243.095767 
L 518.4 243.095767 
" clip-path="url(#pd6685d4886)" style="fill: none; stroke-dasharray: 2.22,0.96; stroke-dashoffset: 0; stroke: #b0b0b0; stroke-opacity: 0.7; stroke-width: 0.6"/>
     </g>
     <g id="line2d_16">
      <g>
       <use xlink:href="#mab772493af" x="72" y="243.095767" style="fill: #1a1a1a; stroke: #1a1a1a; stroke-width: 0.8"/>
      </g>
     </g>
     <g id="text_9">
      <!-- 0 -->
      <g style="fill: #1a1a1a" transform="translate(60.865 247.654829) scale(0.12 -0.12)">
       <use xlink:href="#DejaVuSans-30"/>
      </g>
     </g>
    </g>
    <g id="ytick_4">
     <g id="line2d_17">
      <path d="M 72 174.909847 
L 518.4 174.909847 
" clip-path="url(#pd6685d4886)" style="fill: none; stroke-dasharray: 2.22,0.96; stroke-dashoffset: 0; stroke: #b0b0b0; stroke-opacity: 0.7; stroke-width: 0.6"/>
     </g>
     <g id="line2d_18">
      <g>
       <use xlink:href="#mab772493af" x="72" y="174.909847" style="fill: #1a1a1a; stroke: #1a1a1a; stroke-width: 0.8"/>
      </g>
     </g>
     <g id="text_10">
      <!-- 1 -->
      <g style="fill: #1a1a1a" transform="translate(60.865 179.46891) scale(0.12 -0.12)">
       <use xlink:href="#DejaVuSans-31"/>
      </g>
     </g>
    </g>
    <g id="ytick_5">
     <g id="line2d_19">
      <path d="M 72 106.723927 
L 518.4 106.723927 
" clip-path="url(#pd6685d4886)" style="fill: none; stroke-dasharray: 2.22,0.96; stroke-dashoffset: 0; stroke: #b0b0b0; stroke-opacity: 0.7; stroke-width: 0.6"/>
     </g>
     <g id="line2d_20">
      <g>
       <use xlink:href="#mab772493af" x="72" y="106.723927" style="fill: #1a1a1a; stroke: #1a1a1a; stroke-width: 0.8"/>
      </g>
     </g>
     <g id="text_11">
      <!-- 2 -->
      <g style="fill: #1a1a1a" transform="translate(60.865 111.28299) scale(0.12 -0.12)">
       <use xlink:href="#DejaVuSans-32"/>
      </g>
     </g>
    </g>
    <g id="text_12">
     <!-- PCA2 -->
     <g style="fill: #1a1a1a" transform="translate(44.31375 233.889375) rotate(-90) scale(0.12 -0.12)">
      <use xlink:href="#DejaVuSans-50"/>
      <use xlink:href="#DejaVuSans-43" x="60.302734"/>
      <use xlink:href="#DejaVuSans-41" x="130.126953"/>
      <use xlink:href="#DejaVuSans-32" x="198.535156"/>
     </g>
    </g>
   </g>
   <g id="patch_3">
    <path d="M 72 384.48 
L 72 51.84 
" style="fill: none; stroke: #1a1a1a; stroke-linejoin: miter; stroke-linecap: square"/>
   </g>
   <g id="patch_4">
    <path d="M 72 384.48 
L 518.4 384.48 
" style="fill: none; stroke: #1a1a1a; stroke-linejoin: miter; stroke-linecap: square"/>
   </g>
   <g id="text_13">
    <!-- GMM Clustering -->
    <g style="fill: #333333" transform="translate(231.88875 45.84) scale(0.16 -0.16)">
     <defs>
      <path id="DejaVuSans-47" d="M 3809 666 
L 3809 1919 
L 2778 1919 
L 2778 2438 
L 4434 2438 
L 4434 434 
Q 4069 175 3628 42 
Q 3188 -91 2688 -91 
Q 1594 -91 976 548 
Q 359 1188 359 2328 
Q 359 3472 976 4111 
Q 1594 4750 2688 4750 
Q 3144 4750 3555 4637 
Q 3966 4525 4313 4306 
L 4313 3634 
Q 3963 3931 3569 4081 
Q 3175 4231 2741 4231 
Q 1884 4231 1454 3753 
Q 1025 3275 1025 2328 
Q 1025 1384 1454 906 
Q 1884 428 2741 428 
Q 3075 428 3337 486 
Q 3600 544 3809 666 
z
" transform="scale(0.015625)"/>
      <path id="DejaVuSans-4d" d="M 628 4666 
L 1569 4666 
L 2759 1491 
L 3956 4666 
L 4897 4666 
L 4897 0 
L 4281 0 
L 4281 4097 
L 3078 897 
L 2444 897 
L 1241 4097 
L 1241 0 
L 628 0 
L 628 4666 
z
" transform="scale(0.015625)"/>
      <path id="DejaVuSans-20" transform="scale(0.015625)"/>
      <path id="DejaVuSans-6c" d="M 603 4863 
L 1178 4863 
L 1178 0 
L 603 0 
L 603 4863 
z
" transform="scale(0.015625)"/>
      <path id="DejaVuSans-75" d="M 544 1381 
L 544 3500 
L 1119 3500 
L 1119 1403 
Q 1119 906 1312 657 
Q 1506 409 1894 409 
Q 2359 409 2629 706 
Q 2900 1003 2900 1516 
L 2900 3500 
L 3475 3500 
L 3475 0 
L 2900 0 
L 2900 538 
Q 2691 219 2414 64 
Q 2138 -91 1772 -91 
Q 1169 -91 856 284 
Q 544 659 544 1381 
z
M 1991 3584 
L 1991 3584 
z
" transform="scale(0.015625)"/>
      <path id="DejaVuSans-73" d="M 2834 3397 
L 2834 2853 
Q 2591 2978 2328 3040 
Q 2066 3103 1784 3103 
Q 1356 3103 1142 2972 
Q 928 2841 928 2578 
Q 928 2378 1081 2264 
Q 1234 2150 1697 2047 
L 1894 2003 
Q 2506 1872 2764 1633 
Q 3022 1394 3022 966 
Q 3022 478 2636 193 
Q 2250 -91 1575 -91 
Q 1294 -91 989 -36 
Q 684 19 347 128 
L 347 722 
Q 666 556 975 473 
Q 1284 391 1588 391 
Q 1994 391 2212 530 
Q 2431 669 2431 922 
Q 2431 1156 2273 1281 
Q 2116 1406 1581 1522 
L 1381 1569 
Q 847 1681 609 1914 
Q 372 2147 372 2553 
Q 372 3047 722 3315 
Q 1072 3584 1716 3584 
Q 2034 3584 2315 3537 
Q 2597 3491 2834 3397 
z
" transform="scale(0.015625)"/>
      <path id="DejaVuSans-74" d="M 1172 4494 
L 1172 3500 
L 2356 3500 
L 2356 3053 
L 1172 3053 
L 1172 1153 
Q 1172 725 1289 603 
Q 1406 481 1766 481 
L 2356 481 
L 2356 0 
L 1766 0 
Q 1100 0 847 248 
Q 594 497 594 1153 
L 594 3053 
L 172 3053 
L 172 3500 
L 594 3500 
L 594 4494 
L 1172 4494 
z
" transform="scale(0.015625)"/>
      <path id="DejaVuSans-65" d="M 3597 1894 
L 3597 1613 
L 953 1613 
Q 991 1019 1311 708 
Q 1631 397 2203 397 
Q 2534 397 2845 478 
Q 3156 559 3463 722 
L 3463 178 
Q 3153 47 2828 -22 
Q 2503 -91 2169 -91 
Q 1331 -91 842 396 
Q 353 884 353 1716 
Q 353 2575 817 3079 
Q 1281 3584 2069 3584 
Q 2775 3584 3186 3129 
Q 3597 2675 3597 1894 
z
M 3022 2063 
Q 3016 2534 2758 2815 
Q 2500 3097 2075 3097 
Q 1594 3097 1305 2825 
Q 1016 2553 972 2059 
L 3022 2063 
z
" transform="scale(0.015625)"/>
      <path id="DejaVuSans-72" d="M 2631 2963 
Q 2534 3019 2420 3045 
Q 2306 3072 2169 3072 
Q 1681 3072 1420 2755 
Q 1159 2438 1159 1844 
L 1159 0 
L 581 0 
L 581 3500 
L 1159 3500 
L 1159 2956 
Q 1341 3275 1631 3429 
Q 1922 3584 2338 3584 
Q 2397 3584 2469 3576 
Q 2541 3569 2628 3553 
L 2631 2963 
z
" transform="scale(0.015625)"/>
      <path id="DejaVuSans-69" d="M 603 3500 
L 1178 3500 
L 1178 0 
L 603 0 
L 603 3500 
z
M 603 4863 
L 1178 4863 
L 1178 4134 
L 603 4134 
L 603 4863 
z
" transform="scale(0.015625)"/>
      <path id="DejaVuSans-6e" d="M 3513 2113 
L 3513 0 
L 2938 0 
L 2938 2094 
Q 2938 2591 2744 2837 
Q 2550 3084 2163 3084 
Q 1697 3084 1428 2787 
Q 1159 2491 1159 1978 
L 1159 0 
L 581 0 
L 581 3500 
L 1159 3500 
L 1159 2956 
Q 1366 3272 1645 3428 
Q 1925 3584 2291 3584 
Q 2894 3584 3203 3211 
Q 3513 2838 3513 2113 
z
" transform="scale(0.015625)"/>
      <path id="DejaVuSans-67" d="M 2906 1791 
Q 2906 2416 2648 2759 
Q 2391 3103 1925 3103 
Q 1463 3103 1205 2759 
Q 947 2416 947 1791 
Q 947 1169 1205 825 
Q 1463 481 1925 481 
Q 2391 481 2648 825 
Q 2906 1169 2906 1791 
z
M 3481 434 
Q 3481 -459 3084 -895 
Q 2688 -1331 1869 -1331 
Q 1566 -1331 1297 -1286 
Q 1028 -1241 775 -1147 
L 775 -588 
Q 1028 -725 1275 -790 
Q 1522 -856 1778 -856 
Q 2344 -856 2625 -561 
Q 2906 -266 2906 331 
L 2906 616 
Q 2728 306 2450 153 
Q 2172 0 1784 0 
Q 1141 0 747 490 
Q 353 981 353 1791 
Q 353 2603 747 3093 
Q 1141 3584 1784 3584 
Q 2172 3584 2450 3431 
Q 2728 3278 2906 2969 
L 2906 3500 
L 3481 3500 
L 3481 434 
z
" transform="scale(0.015625)"/>
     </defs>
     <use xlink:href="#DejaVuSans-47"/>
     <use xlink:href="#DejaVuSans-4d" x="77.490234"/>
     <use xlink:href="#DejaVuSans-4d" x="163.769531"/>
     <use xlink:href="#DejaVuSans-20" x="250.048828"/>
     <use xlink:href="#DejaVuSans-43" x="281.835938"/>
     <use xlink:href="#DejaVuSans-6c" x="351.660156"/>
     <use xlink:href="#DejaVuSans-75" x="379.443359"/>
     <use xlink:href="#DejaVuSans-73" x="442.822266"/>
     <use xlink:href="#DejaVuSans-74" x="494.921875"/>
     <use xlink:href="#DejaVuSans-65" x="534.130859"/>
     <use xlink:href="#DejaVuSans-72" x="595.654297"/>
     <use xlink:href="#DejaVuSans-69" x="636.767578"/>
     <use xlink:href="#DejaVuSans-6e" x="664.550781"/>
     <use xlink:href="#DejaVuSans-67" x="727.929688"/>
    </g>
   </g>
  </g>
 </g>
 <defs>
  <clipPath id="pd6685d4886">
   <rect x="72" y="51.84" width="446.4" height="332.64"/>
  </clipPath>
 </defs>
</svg>
